<?xml version="1.0" encoding="utf-8"?>
<!-- Generator: Adobe Illustrator 16.0.0, SVG Export Plug-In . SVG Version: 6.00 Build 0)  -->
<!DOCTYPE svg PUBLIC "-//W3C//DTD SVG 1.1//EN" "http://www.w3.org/Graphics/SVG/1.1/DTD/svg11.dtd">
<svg version="1.1" id="logo" xmlns="http://www.w3.org/2000/svg" xmlns:xlink="http://www.w3.org/1999/xlink" x="0px" y="0px"
	 width="56px" height="18px" viewBox="0 0 56 18" enable-background="new 0 0 56 18" xml:space="preserve">
<g>
	<g>
		<path fill="#ffffff" d="M16.788,0.162c-0.352-0.144-0.716-0.18-1.092-0.108c-0.368,0.08-0.688,0.256-0.96,0.528L8.976,6.33
			L3.228,0.582C2.956,0.31,2.632,0.134,2.256,0.054C1.88-0.018,1.516,0.018,1.164,0.162c-0.352,0.152-0.632,0.384-0.84,0.696
			C0.108,1.178,0,1.53,0,1.914v14.172c0,0.527,0.184,0.977,0.552,1.344c0.368,0.369,0.816,0.553,1.344,0.553
			c0.52,0,0.964-0.184,1.332-0.553c0.368-0.367,0.552-0.816,0.552-1.344V6.474l3.864,3.864c0.368,0.367,0.812,0.553,1.332,0.553
			c0.528,0,0.976-0.186,1.344-0.553l3.864-3.864v9.612c0,0.527,0.184,0.977,0.552,1.344c0.368,0.369,0.812,0.553,1.332,0.553
			s0.964-0.184,1.332-0.553c0.376-0.367,0.564-0.816,0.564-1.344V1.914c0-0.384-0.108-0.736-0.324-1.056
			C17.432,0.546,17.148,0.314,16.788,0.162z M28.344,0.018h-4.716c-0.528,0-0.976,0.188-1.344,0.564
			c-0.368,0.368-0.552,0.813-0.552,1.332v14.172c0,0.527,0.184,0.977,0.552,1.344c0.368,0.369,0.816,0.553,1.344,0.553h4.716
			c2.48,0,4.596-0.877,6.348-2.629c1.76-1.76,2.641-3.875,2.641-6.348c0-2.48-0.881-4.596-2.641-6.348
			C32.939,0.898,30.824,0.018,28.344,0.018z M32.027,12.678c-1.016,1.016-2.244,1.523-3.684,1.523h-2.832V3.798h2.832
			c1.439,0,2.668,0.512,3.684,1.536c1.016,1.016,1.524,2.24,1.524,3.672C33.552,10.438,33.043,11.662,32.027,12.678z M53.867,14.201
			h-9.924v-3.311h7.561c0.52,0,0.967-0.186,1.344-0.553c0.367-0.368,0.552-0.812,0.552-1.332c0-0.528-0.185-0.976-0.552-1.344
			c-0.377-0.368-0.824-0.552-1.344-0.552h-7.561V3.798h9.924c0.52,0,0.969-0.184,1.344-0.552c0.368-0.368,0.553-0.812,0.553-1.332
			c0-0.52-0.185-0.964-0.553-1.332c-0.375-0.376-0.824-0.564-1.344-0.564H42.059c-0.527,0-0.976,0.188-1.344,0.564
			c-0.367,0.368-0.552,0.813-0.552,1.332v14.172c0,0.527,0.185,0.977,0.552,1.344c0.368,0.369,0.816,0.553,1.344,0.553h11.809
			c0.52,0,0.969-0.184,1.344-0.553c0.368-0.367,0.553-0.816,0.553-1.344c0-0.52-0.185-0.965-0.553-1.332
			C54.836,14.387,54.387,14.201,53.867,14.201z"/>
	</g>
</g>
</svg>
